<?xml version="1.0" encoding="UTF-8"?>
<svg version="1.1" xmlns="http://www.w3.org/2000/svg" width="838" height="298">
<path d="M0,0 L16,0 L16,1 L23,1 L23,2 L29,2 L29,3 L32,3 L32,4 L35,4 L35,5 L37,5 L37,6 L39,6 L39,7 L41,7 L41,8 L42,8 L42,9 L44,9 L44,10 L45,10 L45,11 L46,11 L46,12 L47,12 L47,13 L48,13 L48,14 L49,14 L49,15 L50,15 L50,17 L51,17 L51,18 L52,18 L52,20 L53,20 L53,22 L54,22 L54,25 L55,25 L55,29 L56,29 L56,35 L57,35 L57,96 L58,96 L58,99 L59,99 L59,100 L60,100 L60,101 L67,101 L67,100 L71,100 L71,105 L72,105 L72,112 L73,112 L73,118 L74,118 L74,123 L72,123 L72,124 L71,124 L71,125 L68,125 L68,126 L65,126 L65,127 L61,127 L61,128 L46,128 L46,127 L41,127 L41,126 L38,126 L38,125 L36,125 L36,124 L35,124 L35,123 L33,123 L33,122 L32,122 L32,121 L31,121 L31,120 L30,120 L30,118 L29,118 L29,117 L28,117 L28,115 L27,115 L27,113 L25,113 L25,115 L24,115 L24,116 L23,116 L23,117 L22,117 L22,118 L21,118 L21,119 L20,119 L20,120 L18,120 L18,121 L17,121 L17,122 L15,122 L15,123 L13,123 L13,124 L11,124 L11,125 L9,125 L9,126 L6,126 L6,127 L-1,127 L-1,128 L-17,128 L-17,127 L-24,127 L-24,126 L-27,126 L-27,125 L-29,125 L-29,124 L-31,124 L-31,123 L-33,123 L-33,122 L-35,122 L-35,121 L-37,121 L-37,120 L-38,120 L-38,119 L-39,119 L-39,118 L-40,118 L-40,117 L-41,117 L-41,116 L-42,116 L-42,115 L-43,115 L-43,114 L-44,114 L-44,113 L-45,113 L-45,111 L-46,111 L-46,110 L-47,110 L-47,108 L-48,108 L-48,106 L-49,106 L-49,103 L-50,103 L-50,98 L-51,98 L-51,83 L-50,83 L-50,78 L-49,78 L-49,75 L-48,75 L-48,74 L-47,74 L-47,72 L-46,72 L-46,70 L-45,70 L-45,69 L-44,69 L-44,68 L-43,68 L-43,67 L-42,67 L-42,66 L-41,66 L-41,65 L-40,65 L-40,64 L-38,64 L-38,63 L-37,63 L-37,62 L-35,62 L-35,61 L-34,61 L-34,60 L-32,60 L-32,59 L-29,59 L-29,58 L-27,58 L-27,57 L-25,57 L-25,56 L-22,56 L-22,55 L-18,55 L-18,54 L-13,54 L-13,53 L-6,53 L-6,52 L-2,52 L-2,51 L3,51 L3,50 L8,50 L8,49 L12,49 L12,48 L15,48 L15,47 L17,47 L17,46 L19,46 L19,45 L20,45 L20,44 L21,44 L21,41 L22,41 L22,36 L21,36 L21,33 L20,33 L20,32 L19,32 L19,31 L18,31 L18,30 L17,30 L17,29 L13,29 L13,28 L-1,28 L-1,29 L-6,29 L-6,30 L-8,30 L-8,31 L-10,31 L-10,32 L-12,32 L-12,33 L-13,33 L-13,34 L-15,34 L-15,35 L-17,35 L-17,36 L-18,36 L-18,37 L-19,37 L-19,38 L-20,38 L-20,39 L-21,39 L-21,40 L-23,40 L-23,41 L-24,41 L-24,42 L-25,42 L-25,43 L-26,43 L-26,44 L-27,44 L-27,45 L-30,45 L-30,43 L-31,43 L-31,42 L-32,42 L-32,40 L-33,40 L-33,39 L-34,39 L-34,37 L-35,37 L-35,36 L-36,36 L-36,35 L-37,35 L-37,33 L-38,33 L-38,32 L-39,32 L-39,31 L-40,31 L-40,29 L-41,29 L-41,28 L-42,28 L-42,27 L-43,27 L-43,25 L-44,25 L-44,24 L-45,24 L-45,21 L-43,21 L-43,20 L-42,20 L-42,19 L-41,19 L-41,18 L-40,18 L-40,17 L-39,17 L-39,16 L-38,16 L-38,15 L-37,15 L-37,14 L-36,14 L-36,13 L-35,13 L-35,12 L-33,12 L-33,11 L-32,11 L-32,10 L-30,10 L-30,9 L-28,9 L-28,8 L-26,8 L-26,7 L-24,7 L-24,6 L-22,6 L-22,5 L-20,5 L-20,4 L-17,4 L-17,3 L-14,3 L-14,2 L-8,2 L-8,1 L0,1 Z M20,68 L20,69 L13,69 L13,70 L7,70 L7,71 L2,71 L2,72 L-2,72 L-2,73 L-5,73 L-5,74 L-7,74 L-7,75 L-10,75 L-10,76 L-11,76 L-11,77 L-12,77 L-12,78 L-13,78 L-13,79 L-14,79 L-14,80 L-15,80 L-15,83 L-16,83 L-16,92 L-15,92 L-15,95 L-14,95 L-14,97 L-13,97 L-13,98 L-12,98 L-12,99 L-10,99 L-10,100 L-6,100 L-6,101 L4,101 L4,100 L9,100 L9,99 L12,99 L12,98 L13,98 L13,97 L15,97 L15,96 L16,96 L16,95 L17,95 L17,94 L18,94 L18,93 L19,93 L19,91 L20,91 L20,88 L21,88 L21,85 L22,85 L22,80 L23,80 L23,68 Z " fill="#010101" transform="translate(365,109)"/>
<path d="M0,0 L27,0 L27,1 L34,1 L34,2 L37,2 L37,3 L39,3 L39,4 L41,4 L41,5 L43,5 L43,6 L44,6 L44,8 L43,8 L43,12 L42,12 L42,15 L41,15 L41,18 L40,18 L40,21 L39,21 L39,24 L38,24 L38,28 L37,28 L37,31 L36,31 L36,32 L34,32 L34,31 L32,31 L32,30 L29,30 L29,29 L27,29 L27,28 L11,28 L11,29 L9,29 L9,30 L8,30 L8,31 L7,31 L7,33 L6,33 L6,35 L5,35 L5,39 L4,39 L4,50 L5,50 L5,52 L38,52 L38,54 L39,54 L39,78 L38,78 L38,79 L5,79 L5,175 L4,175 L4,176 L-30,176 L-30,175 L-31,175 L-31,107 L-30,107 L-30,101 L-31,101 L-31,100 L-30,100 L-30,81 L-31,81 L-31,80 L-30,80 L-30,79 L-48,79 L-48,78 L-49,78 L-49,75 L-48,75 L-48,74 L-49,74 L-49,55 L-48,55 L-48,52 L-30,52 L-30,51 L-31,51 L-31,50 L-30,50 L-30,42 L-31,42 L-31,39 L-30,39 L-30,37 L-31,37 L-31,35 L-30,35 L-30,28 L-29,28 L-29,25 L-28,25 L-28,22 L-27,22 L-27,20 L-26,20 L-26,18 L-25,18 L-25,16 L-24,16 L-24,15 L-23,15 L-23,13 L-22,13 L-22,12 L-21,12 L-21,11 L-20,11 L-20,10 L-19,10 L-19,9 L-17,9 L-17,8 L-16,8 L-16,7 L-15,7 L-15,6 L-13,6 L-13,5 L-11,5 L-11,4 L-9,4 L-9,3 L-7,3 L-7,2 L-4,2 L-4,1 L0,1 Z " fill="#010101" transform="translate(266,59)"/>
<path d="M0,0 L14,0 L14,1 L21,1 L21,2 L27,2 L27,3 L30,3 L30,4 L33,4 L33,5 L35,5 L35,6 L37,6 L37,7 L39,7 L39,8 L41,8 L41,9 L43,9 L43,10 L44,10 L44,11 L45,11 L45,12 L47,12 L47,13 L48,13 L48,14 L49,14 L49,15 L50,15 L50,16 L51,16 L51,17 L52,17 L52,18 L53,18 L53,20 L54,20 L54,21 L55,21 L55,23 L56,23 L56,24 L57,24 L57,26 L58,26 L58,28 L59,28 L59,30 L57,30 L57,31 L56,31 L56,32 L54,32 L54,33 L53,33 L53,34 L51,34 L51,35 L49,35 L49,36 L48,36 L48,37 L46,37 L46,38 L45,38 L45,39 L43,39 L43,40 L42,40 L42,41 L40,41 L40,42 L39,42 L39,43 L37,43 L37,44 L36,44 L36,45 L33,45 L33,43 L32,43 L32,42 L31,42 L31,40 L30,40 L30,39 L29,39 L29,37 L28,37 L28,36 L27,36 L27,35 L26,35 L26,34 L24,34 L24,33 L23,33 L23,32 L21,32 L21,31 L20,31 L20,30 L18,30 L18,29 L13,29 L13,28 L1,28 L1,29 L-4,29 L-4,30 L-6,30 L-6,31 L-7,31 L-7,32 L-9,32 L-9,33 L-10,33 L-10,34 L-11,34 L-11,35 L-12,35 L-12,36 L-13,36 L-13,37 L-14,37 L-14,39 L-15,39 L-15,40 L-16,40 L-16,42 L-17,42 L-17,44 L-18,44 L-18,47 L-19,47 L-19,51 L-20,51 L-20,57 L-21,57 L-21,69 L-20,69 L-20,75 L-19,75 L-19,80 L-18,80 L-18,83 L-17,83 L-17,85 L-16,85 L-16,87 L-15,87 L-15,88 L-14,88 L-14,90 L-13,90 L-13,91 L-12,91 L-12,92 L-11,92 L-11,93 L-10,93 L-10,94 L-9,94 L-9,95 L-8,95 L-8,96 L-6,96 L-6,97 L-4,97 L-4,98 L-2,98 L-2,99 L1,99 L1,100 L18,100 L18,99 L21,99 L21,98 L23,98 L23,97 L24,97 L24,96 L26,96 L26,95 L27,95 L27,94 L28,94 L28,93 L29,93 L29,92 L30,92 L30,91 L31,91 L31,89 L32,89 L32,88 L33,88 L33,86 L34,86 L34,83 L35,83 L35,81 L38,81 L38,82 L40,82 L40,83 L42,83 L42,84 L45,84 L45,85 L47,85 L47,86 L49,86 L49,87 L51,87 L51,88 L53,88 L53,89 L55,89 L55,90 L58,90 L58,91 L60,91 L60,92 L62,92 L62,93 L63,93 L63,94 L64,94 L64,96 L63,96 L63,98 L62,98 L62,100 L61,100 L61,102 L60,102 L60,104 L59,104 L59,105 L58,105 L58,107 L57,107 L57,108 L56,108 L56,109 L55,109 L55,111 L54,111 L54,112 L53,112 L53,113 L52,113 L52,114 L50,114 L50,115 L49,115 L49,116 L48,116 L48,117 L47,117 L47,118 L45,118 L45,119 L44,119 L44,120 L42,120 L42,121 L40,121 L40,122 L38,122 L38,123 L36,123 L36,124 L33,124 L33,125 L31,125 L31,126 L26,126 L26,127 L18,127 L18,128 L-5,128 L-5,127 L-12,127 L-12,126 L-16,126 L-16,125 L-19,125 L-19,124 L-21,124 L-21,123 L-23,123 L-23,122 L-25,122 L-25,121 L-27,121 L-27,120 L-29,120 L-29,119 L-31,119 L-31,118 L-32,118 L-32,117 L-34,117 L-34,116 L-35,116 L-35,115 L-36,115 L-36,114 L-37,114 L-37,113 L-38,113 L-38,112 L-39,112 L-39,111 L-40,111 L-40,110 L-41,110 L-41,109 L-42,109 L-42,108 L-43,108 L-43,107 L-44,107 L-44,106 L-45,106 L-45,105 L-46,105 L-46,103 L-47,103 L-47,101 L-48,101 L-48,100 L-49,100 L-49,98 L-50,98 L-50,96 L-51,96 L-51,94 L-52,94 L-52,91 L-53,91 L-53,88 L-54,88 L-54,85 L-55,85 L-55,81 L-56,81 L-56,75 L-57,75 L-57,52 L-56,52 L-56,46 L-55,46 L-55,42 L-54,42 L-54,39 L-53,39 L-53,36 L-52,36 L-52,34 L-51,34 L-51,32 L-50,32 L-50,30 L-49,30 L-49,28 L-48,28 L-48,26 L-47,26 L-47,25 L-46,25 L-46,23 L-45,23 L-45,22 L-44,22 L-44,21 L-43,21 L-43,20 L-42,20 L-42,19 L-41,19 L-41,17 L-40,17 L-40,16 L-38,16 L-38,15 L-37,15 L-37,14 L-36,14 L-36,13 L-35,13 L-35,12 L-34,12 L-34,11 L-33,11 L-33,10 L-31,10 L-31,9 L-29,9 L-29,8 L-27,8 L-27,7 L-25,7 L-25,6 L-23,6 L-23,5 L-21,5 L-21,4 L-18,4 L-18,3 L-14,3 L-14,2 L-9,2 L-9,1 L0,1 Z " fill="#010101" transform="translate(500,109)"/>
<path d="M0,0 L2,0 L2,1 L3,1 L3,29 L4,29 L4,28 L40,28 L40,29 L42,29 L42,51 L41,51 L41,52 L42,52 L42,54 L41,54 L41,55 L3,55 L3,113 L4,113 L4,117 L5,117 L5,120 L6,120 L6,121 L7,121 L7,122 L8,122 L8,123 L9,123 L9,124 L11,124 L11,125 L17,125 L17,126 L21,126 L21,125 L27,125 L27,124 L30,124 L30,123 L33,123 L33,122 L35,122 L35,121 L37,121 L37,120 L38,120 L38,121 L39,121 L39,122 L40,122 L40,126 L41,126 L41,130 L42,130 L42,133 L43,133 L43,136 L44,136 L44,139 L45,139 L45,142 L46,142 L46,145 L47,145 L47,146 L46,146 L46,147 L45,147 L45,148 L42,148 L42,149 L40,149 L40,150 L38,150 L38,151 L35,151 L35,152 L31,152 L31,153 L23,153 L23,154 L1,154 L1,153 L-6,153 L-6,152 L-9,152 L-9,151 L-12,151 L-12,150 L-14,150 L-14,149 L-16,149 L-16,148 L-17,148 L-17,147 L-19,147 L-19,146 L-20,146 L-20,145 L-21,145 L-21,144 L-22,144 L-22,143 L-23,143 L-23,142 L-24,142 L-24,141 L-25,141 L-25,140 L-26,140 L-26,139 L-27,139 L-27,137 L-28,137 L-28,135 L-29,135 L-29,132 L-30,132 L-30,130 L-31,130 L-31,126 L-32,126 L-32,120 L-33,120 L-33,55 L-53,55 L-53,54 L-54,54 L-54,28 L-33,28 L-33,7 L-32,7 L-32,6 L-27,6 L-27,5 L-20,5 L-20,4 L-15,4 L-15,3 L-10,3 L-10,2 L-5,2 L-5,1 L0,1 Z " fill="#010101" transform="translate(620,83)"/>
<path d="M0,0 L13,0 L13,1 L18,1 L18,2 L21,2 L21,3 L24,3 L24,4 L26,4 L26,5 L27,5 L27,6 L29,6 L29,7 L30,7 L30,8 L32,8 L32,9 L33,9 L33,10 L34,10 L34,11 L35,11 L35,12 L36,12 L36,13 L37,13 L37,14 L38,14 L38,15 L39,15 L39,17 L40,17 L40,18 L41,18 L41,20 L42,20 L42,22 L43,22 L43,24 L44,24 L44,27 L45,27 L45,30 L46,30 L46,44 L45,44 L45,48 L44,48 L44,50 L43,50 L43,52 L42,52 L42,54 L41,54 L41,56 L40,56 L40,58 L39,58 L39,59 L38,59 L38,60 L37,60 L37,61 L36,61 L36,62 L35,62 L35,63 L34,63 L34,64 L33,64 L33,65 L32,65 L32,66 L31,66 L31,67 L29,67 L29,68 L27,68 L27,69 L25,69 L25,70 L23,70 L23,71 L20,71 L20,72 L18,72 L18,73 L12,73 L12,74 L1,74 L1,73 L-3,73 L-3,72 L-6,72 L-6,71 L-9,71 L-9,70 L-12,70 L-12,69 L-14,69 L-14,68 L-15,68 L-15,67 L-17,67 L-17,66 L-18,66 L-18,65 L-19,65 L-19,64 L-20,64 L-20,63 L-21,63 L-21,62 L-22,62 L-22,61 L-23,61 L-23,60 L-24,60 L-24,59 L-25,59 L-25,58 L-26,58 L-26,57 L-27,57 L-27,55 L-28,55 L-28,53 L-29,53 L-29,51 L-30,51 L-30,48 L-31,48 L-31,45 L-32,45 L-32,30 L-31,30 L-31,26 L-30,26 L-30,24 L-29,24 L-29,21 L-28,21 L-28,19 L-27,19 L-27,17 L-26,17 L-26,16 L-25,16 L-25,15 L-24,15 L-24,14 L-23,14 L-23,12 L-21,12 L-21,10 L-20,10 L-20,9 L-18,9 L-18,8 L-17,8 L-17,7 L-16,7 L-16,6 L-14,6 L-14,5 L-13,5 L-13,4 L-10,4 L-10,3 L-8,3 L-8,2 L-4,2 L-4,1 L0,1 Z " fill="#010101" transform="translate(138,34)"/>
<path d="M0,0 L15,0 L15,1 L19,1 L19,2 L21,2 L21,3 L24,3 L24,4 L26,4 L26,5 L28,5 L28,6 L29,6 L29,7 L31,7 L31,8 L32,8 L32,9 L33,9 L33,10 L34,10 L34,11 L35,11 L35,12 L36,12 L36,13 L37,13 L37,14 L38,14 L38,15 L39,15 L39,16 L40,16 L40,18 L41,18 L41,19 L42,19 L42,21 L43,21 L43,23 L44,23 L44,26 L45,26 L45,30 L46,30 L46,45 L45,45 L45,49 L44,49 L44,51 L43,51 L43,54 L42,54 L42,56 L41,56 L41,57 L40,57 L40,59 L39,59 L39,60 L38,60 L38,61 L37,61 L37,62 L36,62 L36,63 L35,63 L35,64 L34,64 L34,65 L33,65 L33,66 L31,66 L31,67 L30,67 L30,68 L28,68 L28,69 L26,69 L26,70 L24,70 L24,71 L22,71 L22,72 L18,72 L18,73 L11,73 L11,74 L5,74 L5,73 L-3,73 L-3,72 L-6,72 L-6,71 L-8,71 L-8,70 L-11,70 L-11,69 L-12,69 L-12,68 L-14,68 L-14,67 L-16,67 L-16,66 L-17,66 L-17,65 L-18,65 L-18,64 L-20,64 L-20,63 L-21,63 L-21,61 L-22,61 L-22,60 L-24,60 L-24,58 L-25,58 L-25,57 L-26,57 L-26,55 L-27,55 L-27,53 L-29,53 L-29,52 L-28,52 L-28,51 L-29,51 L-29,48 L-30,48 L-30,43 L-31,43 L-31,31 L-30,31 L-30,27 L-29,27 L-29,24 L-28,24 L-28,22 L-27,22 L-27,20 L-26,20 L-26,18 L-25,18 L-25,16 L-24,16 L-24,15 L-23,15 L-23,14 L-22,14 L-22,12 L-20,12 L-20,10 L-19,10 L-19,9 L-17,9 L-17,8 L-16,8 L-16,7 L-15,7 L-15,6 L-13,6 L-13,5 L-11,5 L-11,4 L-9,4 L-9,3 L-7,3 L-7,2 L-4,2 L-4,1 L0,1 Z " fill="#010101" transform="translate(43,117)"/>
<path d="M0,0 L13,0 L13,1 L17,1 L17,2 L20,2 L20,3 L23,3 L23,4 L25,4 L25,5 L27,5 L27,6 L29,6 L29,7 L30,7 L30,8 L31,8 L31,9 L32,9 L32,10 L33,10 L33,11 L34,11 L34,12 L35,12 L35,13 L36,13 L36,14 L37,14 L37,15 L38,15 L38,16 L39,16 L39,18 L40,18 L40,19 L41,19 L41,21 L42,21 L42,23 L43,23 L43,26 L44,26 L44,30 L45,30 L45,45 L44,45 L44,49 L43,49 L43,51 L42,51 L42,54 L41,54 L41,56 L40,56 L40,57 L39,57 L39,59 L38,59 L38,60 L37,60 L37,61 L36,61 L36,62 L35,62 L35,63 L34,63 L34,64 L33,64 L33,65 L32,65 L32,66 L30,66 L30,67 L29,67 L29,68 L27,68 L27,69 L25,69 L25,70 L23,70 L23,71 L21,71 L21,72 L17,72 L17,73 L13,73 L13,74 L1,74 L1,73 L-4,73 L-4,72 L-6,72 L-6,71 L-9,71 L-9,70 L-12,70 L-12,69 L-14,69 L-14,68 L-15,68 L-15,67 L-17,67 L-17,66 L-18,66 L-18,65 L-19,65 L-19,64 L-20,64 L-20,63 L-21,63 L-21,62 L-22,62 L-22,61 L-23,61 L-23,60 L-24,60 L-24,59 L-25,59 L-25,58 L-26,58 L-26,56 L-27,56 L-27,54 L-28,54 L-28,52 L-29,52 L-29,50 L-30,50 L-30,47 L-31,47 L-31,43 L-32,43 L-32,31 L-31,31 L-31,27 L-30,27 L-30,24 L-29,24 L-29,22 L-28,22 L-28,20 L-27,20 L-27,18 L-26,18 L-26,17 L-25,17 L-25,15 L-24,15 L-24,14 L-23,14 L-23,13 L-22,13 L-22,12 L-21,12 L-21,11 L-20,11 L-20,10 L-19,10 L-19,9 L-18,9 L-18,8 L-17,8 L-17,7 L-15,7 L-15,6 L-14,6 L-14,5 L-12,5 L-12,4 L-10,4 L-10,3 L-7,3 L-7,2 L-4,2 L-4,1 L0,1 Z " fill="#010101" transform="translate(44,34)"/>
<path d="M0,0 L16,0 L16,1 L17,1 L17,23 L16,23 L16,24 L17,24 L17,28 L16,28 L16,32 L17,32 L17,33 L16,33 L16,36 L10,36 L10,37 L6,37 L6,38 L4,38 L4,39 L1,39 L1,40 L0,40 L0,41 L-1,41 L-1,42 L-3,42 L-3,43 L-4,43 L-4,44 L-5,44 L-5,46 L-6,46 L-6,47 L-7,47 L-7,48 L-8,48 L-8,50 L-9,50 L-9,52 L-10,52 L-10,55 L-11,55 L-11,59 L-12,59 L-12,63 L-15,63 L-15,62 L-21,62 L-21,61 L-26,61 L-26,60 L-30,60 L-30,59 L-35,59 L-35,58 L-39,58 L-39,57 L-43,57 L-43,56 L-50,56 L-50,55 L-51,55 L-51,50 L-50,50 L-50,46 L-49,46 L-49,43 L-48,43 L-48,40 L-47,40 L-47,38 L-46,38 L-46,35 L-45,35 L-45,33 L-44,33 L-44,31 L-43,31 L-43,30 L-42,30 L-42,28 L-41,28 L-41,27 L-40,27 L-40,25 L-39,25 L-39,24 L-38,24 L-38,22 L-37,22 L-37,21 L-36,21 L-36,20 L-35,20 L-35,19 L-34,19 L-34,18 L-33,18 L-33,17 L-32,17 L-32,16 L-31,16 L-31,15 L-29,15 L-29,14 L-28,14 L-28,13 L-27,13 L-27,12 L-25,12 L-25,11 L-24,11 L-24,10 L-22,10 L-22,9 L-21,9 L-21,8 L-19,8 L-19,7 L-17,7 L-17,6 L-15,6 L-15,5 L-13,5 L-13,4 L-10,4 L-10,3 L-7,3 L-7,2 L-4,2 L-4,1 L0,1 Z " fill="#010101" transform="translate(734,71)"/>
<path d="M0,0 L1,0 L1,1 L3,1 L3,6 L4,6 L4,8 L5,8 L5,11 L6,11 L6,12 L7,12 L7,14 L8,14 L8,15 L9,15 L9,16 L10,16 L10,17 L11,17 L11,18 L12,18 L12,19 L13,19 L13,20 L14,20 L14,21 L15,21 L15,22 L17,22 L17,23 L19,23 L19,24 L23,24 L23,25 L30,25 L30,29 L31,29 L31,46 L30,46 L30,57 L31,57 L31,61 L30,61 L30,62 L18,62 L18,61 L13,61 L13,60 L8,60 L8,59 L4,59 L4,58 L2,58 L2,57 L-1,57 L-1,56 L-2,56 L-2,55 L-4,55 L-4,54 L-6,54 L-6,53 L-8,53 L-8,52 L-10,52 L-10,51 L-11,51 L-11,50 L-13,50 L-13,49 L-14,49 L-14,48 L-15,48 L-15,47 L-16,47 L-16,46 L-17,46 L-17,45 L-18,45 L-18,44 L-19,44 L-19,43 L-20,43 L-20,42 L-21,42 L-21,41 L-22,41 L-22,40 L-23,40 L-23,39 L-24,39 L-24,38 L-25,38 L-25,36 L-26,36 L-26,35 L-27,35 L-27,33 L-28,33 L-28,32 L-29,32 L-29,30 L-30,30 L-30,29 L-31,29 L-31,26 L-32,26 L-32,24 L-33,24 L-33,21 L-34,21 L-34,19 L-35,19 L-35,15 L-36,15 L-36,9 L-34,9 L-34,8 L-29,8 L-29,7 L-25,7 L-25,6 L-21,6 L-21,5 L-17,5 L-17,4 L-12,4 L-12,3 L-7,3 L-7,2 L-3,2 L-3,1 L0,1 Z " fill="#010101" transform="translate(720,182)"/>
<path d="M0,0 L14,0 L14,1 L18,1 L18,2 L21,2 L21,3 L24,3 L24,4 L27,4 L27,5 L29,5 L29,6 L32,6 L32,7 L34,7 L34,8 L35,8 L35,9 L37,9 L37,10 L39,10 L39,11 L40,11 L40,12 L41,12 L41,13 L43,13 L43,14 L44,14 L44,15 L45,15 L45,16 L47,16 L47,17 L48,17 L48,18 L49,18 L49,19 L50,19 L50,20 L51,20 L51,21 L52,21 L52,23 L53,23 L53,24 L54,24 L54,25 L55,25 L55,27 L56,27 L56,28 L57,28 L57,30 L58,30 L58,31 L59,31 L59,33 L60,33 L60,35 L61,35 L61,37 L62,37 L62,39 L63,39 L63,41 L64,41 L64,44 L65,44 L65,48 L66,48 L66,55 L64,55 L64,56 L58,56 L58,57 L53,57 L53,58 L50,58 L50,59 L45,59 L45,60 L41,60 L41,61 L36,61 L36,62 L28,62 L28,60 L27,60 L27,56 L26,56 L26,53 L25,53 L25,51 L24,51 L24,49 L23,49 L23,48 L22,48 L22,46 L21,46 L21,45 L20,45 L20,44 L19,44 L19,43 L18,43 L18,42 L17,42 L17,41 L15,41 L15,40 L14,40 L14,39 L12,39 L12,38 L9,38 L9,37 L4,37 L4,36 L0,36 Z " fill="#010101" transform="translate(755,71)"/>
<path d="M0,0 L5,0 L5,1 L9,1 L9,2 L13,2 L13,3 L19,3 L19,4 L25,4 L25,5 L28,5 L28,6 L33,6 L33,7 L37,7 L37,8 L39,8 L39,11 L38,11 L38,16 L37,16 L37,19 L36,19 L36,22 L35,22 L35,24 L34,24 L34,26 L33,26 L33,28 L32,28 L32,30 L31,30 L31,32 L30,32 L30,33 L29,33 L29,35 L28,35 L28,36 L27,36 L27,37 L26,37 L26,38 L25,38 L25,39 L24,39 L24,41 L23,41 L23,42 L22,42 L22,43 L21,43 L21,44 L20,44 L20,45 L19,45 L19,46 L17,46 L17,47 L16,47 L16,48 L15,48 L15,49 L13,49 L13,50 L12,50 L12,51 L10,51 L10,52 L9,52 L9,53 L7,53 L7,54 L4,54 L4,55 L3,55 L3,56 L0,56 L0,57 L-2,57 L-2,58 L-6,58 L-6,59 L-11,59 L-11,60 L-17,60 L-17,61 L-28,61 L-28,25 L-25,25 L-25,24 L-20,24 L-20,23 L-17,23 L-17,22 L-15,22 L-15,21 L-13,21 L-13,20 L-11,20 L-11,19 L-10,19 L-10,18 L-9,18 L-9,17 L-8,17 L-8,16 L-7,16 L-7,15 L-6,15 L-6,13 L-5,13 L-5,12 L-4,12 L-4,10 L-3,10 L-3,8 L-2,8 L-2,5 L-1,5 L-1,1 L0,1 Z " fill="#020202" transform="translate(783,183)"/>
<path d="M0,0 L15,0 L15,1 L19,1 L19,2 L23,2 L23,3 L25,3 L25,4 L27,4 L27,5 L29,5 L29,6 L30,6 L30,7 L32,7 L32,8 L33,8 L33,9 L34,9 L34,10 L36,10 L36,11 L37,11 L37,12 L38,12 L38,13 L39,13 L39,14 L40,14 L40,16 L41,16 L41,17 L42,17 L42,19 L43,19 L43,20 L44,20 L44,22 L45,22 L45,24 L46,24 L46,26 L47,26 L47,29 L48,29 L48,34 L49,34 L49,47 L48,47 L48,52 L47,52 L47,55 L46,55 L46,58 L45,58 L45,60 L44,60 L44,61 L43,61 L43,63 L42,63 L42,64 L41,64 L41,66 L40,66 L40,67 L39,67 L39,68 L38,68 L38,69 L37,69 L37,70 L36,70 L36,71 L34,71 L34,72 L33,72 L33,73 L32,73 L32,74 L30,74 L30,75 L29,75 L29,76 L27,76 L27,77 L25,77 L25,78 L23,78 L23,79 L19,79 L19,80 L15,80 L15,81 L1,81 L1,80 L-3,80 L-3,79 L-6,79 L-6,78 L-9,78 L-9,77 L-11,77 L-11,76 L-13,76 L-13,75 L-15,75 L-15,74 L-16,74 L-16,73 L-17,73 L-17,72 L-19,72 L-19,71 L-20,71 L-20,70 L-21,70 L-21,69 L-22,69 L-22,68 L-23,68 L-23,67 L-24,67 L-24,66 L-25,66 L-25,65 L-26,65 L-26,63 L-27,63 L-27,62 L-28,62 L-28,60 L-29,60 L-29,58 L-30,58 L-30,56 L-31,56 L-31,54 L-32,54 L-32,51 L-33,51 L-33,46 L-34,46 L-34,35 L-33,35 L-33,30 L-32,30 L-32,27 L-31,27 L-31,25 L-30,25 L-30,23 L-29,23 L-29,21 L-28,21 L-28,19 L-27,19 L-27,18 L-26,18 L-26,16 L-25,16 L-25,15 L-24,15 L-24,14 L-23,14 L-23,13 L-22,13 L-22,12 L-21,12 L-21,11 L-20,11 L-20,10 L-19,10 L-19,9 L-18,9 L-18,8 L-16,8 L-16,7 L-15,7 L-15,6 L-14,6 L-14,5 L-12,5 L-12,4 L-9,4 L-9,3 L-7,3 L-7,2 L-4,2 L-4,1 L0,1 Z M1,10 L1,11 L-3,11 L-3,12 L-5,12 L-5,13 L-7,13 L-7,14 L-9,14 L-9,15 L-11,15 L-11,16 L-12,16 L-12,17 L-13,17 L-13,18 L-14,18 L-14,19 L-15,19 L-15,20 L-16,20 L-16,21 L-17,21 L-17,22 L-18,22 L-18,23 L-19,23 L-19,25 L-20,25 L-20,26 L-21,26 L-21,29 L-22,29 L-22,31 L-23,31 L-23,36 L-24,36 L-24,46 L-23,46 L-23,50 L-22,50 L-22,53 L-21,53 L-21,55 L-20,55 L-20,57 L-19,57 L-19,58 L-18,58 L-18,59 L-17,59 L-17,61 L-16,61 L-16,62 L-15,62 L-15,63 L-14,63 L-14,64 L-13,64 L-13,65 L-12,65 L-12,66 L-10,66 L-10,67 L-9,67 L-9,68 L-7,68 L-7,69 L-4,69 L-4,70 L-2,70 L-2,71 L4,71 L4,72 L13,72 L13,71 L18,71 L18,70 L20,70 L20,69 L22,69 L22,68 L24,68 L24,67 L25,67 L25,66 L27,66 L27,65 L28,65 L28,64 L29,64 L29,63 L30,63 L30,62 L31,62 L31,61 L32,61 L32,60 L33,60 L33,59 L34,59 L34,57 L35,57 L35,56 L36,56 L36,54 L37,54 L37,52 L38,52 L38,48 L39,48 L39,34 L38,34 L38,30 L37,30 L37,28 L36,28 L36,26 L35,26 L35,24 L34,24 L34,23 L33,23 L33,22 L32,22 L32,20 L31,20 L31,19 L30,19 L30,18 L29,18 L29,17 L27,17 L27,16 L26,16 L26,15 L24,15 L24,14 L23,14 L23,13 L21,13 L21,12 L18,12 L18,11 L14,11 L14,10 Z " fill="#DBDBDB" transform="translate(137,114)"/>
<path d="M0,0 L9,0 L9,1 L15,1 L15,2 L19,2 L19,3 L22,3 L22,4 L24,4 L24,5 L26,5 L26,6 L28,6 L28,7 L29,7 L29,8 L31,8 L31,9 L32,9 L32,10 L33,10 L33,11 L34,11 L34,12 L35,12 L35,13 L36,13 L36,14 L37,14 L37,15 L38,15 L38,16 L39,16 L39,17 L40,17 L40,19 L41,19 L41,20 L42,20 L42,22 L43,22 L43,24 L44,24 L44,26 L45,26 L45,29 L46,29 L46,33 L47,33 L47,46 L46,46 L46,51 L45,51 L45,54 L44,54 L44,56 L43,56 L43,58 L42,58 L42,60 L41,60 L41,62 L40,62 L40,63 L39,63 L39,64 L38,64 L38,66 L37,66 L37,67 L36,67 L36,68 L35,68 L35,69 L34,69 L34,70 L32,70 L32,71 L31,71 L31,72 L30,72 L30,73 L28,73 L28,74 L27,74 L27,75 L25,75 L25,76 L23,76 L23,77 L21,77 L21,78 L18,78 L18,79 L14,79 L14,80 L-3,80 L-3,79 L-7,79 L-7,78 L-10,78 L-10,77 L-12,77 L-12,76 L-15,76 L-15,75 L-16,75 L-16,74 L-18,74 L-18,73 L-19,73 L-19,72 L-21,72 L-21,71 L-22,71 L-22,70 L-23,70 L-23,69 L-24,69 L-24,68 L-25,68 L-25,67 L-26,67 L-26,66 L-27,66 L-27,65 L-28,65 L-28,63 L-29,63 L-29,62 L-30,62 L-30,61 L-31,61 L-31,59 L-32,59 L-32,57 L-33,57 L-33,54 L-34,54 L-34,51 L-35,51 L-35,47 L-36,47 L-36,39 L-37,39 L-37,38 L-36,38 L-36,32 L-35,32 L-35,28 L-34,28 L-34,25 L-33,25 L-33,23 L-32,23 L-32,21 L-31,21 L-31,20 L-30,20 L-30,18 L-29,18 L-29,17 L-28,17 L-28,15 L-27,15 L-27,14 L-26,14 L-26,13 L-25,13 L-25,12 L-24,12 L-24,11 L-23,11 L-23,10 L-22,10 L-22,9 L-20,9 L-20,8 L-19,8 L-19,7 L-17,7 L-17,6 L-16,6 L-16,5 L-14,5 L-14,4 L-11,4 L-11,3 L-9,3 L-9,2 L-5,2 L-5,1 L0,1 Z M-2,10 L-2,11 L-5,11 L-5,12 L-8,12 L-8,13 L-10,13 L-10,14 L-12,14 L-12,15 L-14,15 L-14,16 L-15,16 L-15,17 L-16,17 L-16,18 L-17,18 L-17,19 L-18,19 L-18,20 L-19,20 L-19,21 L-20,21 L-20,22 L-21,22 L-21,24 L-22,24 L-22,25 L-23,25 L-23,27 L-24,27 L-24,29 L-25,29 L-25,32 L-26,32 L-26,37 L-27,37 L-27,43 L-26,43 L-26,48 L-25,48 L-25,51 L-24,51 L-24,53 L-23,53 L-23,55 L-22,55 L-22,57 L-21,57 L-21,58 L-20,58 L-20,59 L-19,59 L-19,61 L-18,61 L-18,62 L-17,62 L-17,63 L-16,63 L-16,64 L-14,64 L-14,65 L-13,65 L-13,66 L-11,66 L-11,67 L-10,67 L-10,68 L-8,68 L-8,69 L-5,69 L-5,70 L0,70 L0,71 L10,71 L10,70 L16,70 L16,69 L18,69 L18,68 L20,68 L20,67 L22,67 L22,66 L23,66 L23,65 L25,65 L25,64 L26,64 L26,63 L27,63 L27,62 L28,62 L28,61 L29,61 L29,60 L30,60 L30,59 L31,59 L31,57 L32,57 L32,56 L33,56 L33,54 L34,54 L34,53 L35,53 L35,50 L36,50 L36,46 L37,46 L37,34 L36,34 L36,30 L35,30 L35,28 L34,28 L34,26 L33,26 L33,24 L32,24 L32,23 L31,23 L31,21 L30,21 L30,20 L29,20 L29,19 L28,19 L28,18 L27,18 L27,17 L26,17 L26,16 L25,16 L25,15 L23,15 L23,14 L21,14 L21,13 L19,13 L19,12 L16,12 L16,11 L12,11 L12,10 Z " fill="#E1E1E0" transform="translate(139,200)"/>
<path d="M0,0 L15,0 L15,1 L19,1 L19,2 L23,2 L23,3 L25,3 L25,4 L27,4 L27,5 L29,5 L29,6 L31,6 L31,7 L33,7 L33,8 L34,8 L34,9 L35,9 L35,10 L36,10 L36,11 L37,11 L37,12 L38,12 L38,13 L39,13 L39,14 L40,14 L40,15 L41,15 L41,16 L42,16 L42,17 L43,17 L43,19 L44,19 L44,21 L45,21 L45,22 L46,22 L46,25 L47,25 L47,27 L48,27 L48,31 L49,31 L49,49 L48,49 L48,53 L47,53 L47,56 L46,56 L46,58 L45,58 L45,60 L44,60 L44,61 L43,61 L43,63 L42,63 L42,64 L41,64 L41,65 L40,65 L40,67 L39,67 L39,68 L38,68 L38,69 L37,69 L37,70 L35,70 L35,71 L34,71 L34,72 L32,72 L32,73 L31,73 L31,74 L30,74 L30,75 L28,75 L28,76 L26,76 L26,77 L24,77 L24,78 L21,78 L21,79 L17,79 L17,80 L9,80 L9,81 L8,81 L8,80 L-1,80 L-1,79 L-6,79 L-6,78 L-9,78 L-9,77 L-11,77 L-11,76 L-13,76 L-13,75 L-15,75 L-15,74 L-16,74 L-16,73 L-18,73 L-18,72 L-19,72 L-19,71 L-20,71 L-20,70 L-21,70 L-21,69 L-22,69 L-22,68 L-23,68 L-23,67 L-24,67 L-24,66 L-25,66 L-25,65 L-26,65 L-26,63 L-27,63 L-27,62 L-28,62 L-28,60 L-29,60 L-29,58 L-30,58 L-30,56 L-31,56 L-31,53 L-32,53 L-32,50 L-33,50 L-33,43 L-34,43 L-34,36 L-33,36 L-33,30 L-32,30 L-32,26 L-31,26 L-31,24 L-30,24 L-30,22 L-29,22 L-29,20 L-28,20 L-28,18 L-27,18 L-27,17 L-26,17 L-26,15 L-25,15 L-25,14 L-24,14 L-24,13 L-23,13 L-23,12 L-22,12 L-22,11 L-21,11 L-21,10 L-20,10 L-20,9 L-19,9 L-19,8 L-17,8 L-17,7 L-16,7 L-16,6 L-14,6 L-14,5 L-12,5 L-12,4 L-10,4 L-10,3 L-8,3 L-8,2 L-5,2 L-5,1 L0,1 Z M-1,10 L-1,11 L-4,11 L-4,12 L-7,12 L-7,13 L-9,13 L-9,14 L-11,14 L-11,15 L-12,15 L-12,16 L-13,16 L-13,17 L-14,17 L-14,18 L-16,18 L-16,19 L-17,19 L-17,20 L-18,20 L-18,22 L-19,22 L-19,23 L-20,23 L-20,25 L-21,25 L-21,26 L-22,26 L-22,29 L-23,29 L-23,32 L-24,32 L-24,36 L-25,36 L-25,43 L-24,43 L-24,48 L-23,48 L-23,51 L-22,51 L-22,53 L-21,53 L-21,56 L-20,56 L-20,57 L-19,57 L-19,59 L-18,59 L-18,60 L-17,60 L-17,61 L-16,61 L-16,62 L-15,62 L-15,63 L-14,63 L-14,64 L-13,64 L-13,65 L-11,65 L-11,66 L-10,66 L-10,67 L-8,67 L-8,68 L-6,68 L-6,69 L-3,69 L-3,70 L1,70 L1,71 L14,71 L14,70 L18,70 L18,69 L21,69 L21,68 L23,68 L23,67 L25,67 L25,66 L26,66 L26,65 L28,65 L28,64 L29,64 L29,63 L30,63 L30,62 L31,62 L31,61 L32,61 L32,60 L33,60 L33,59 L34,59 L34,57 L35,57 L35,56 L36,56 L36,54 L37,54 L37,52 L38,52 L38,50 L39,50 L39,46 L40,46 L40,34 L39,34 L39,31 L38,31 L38,28 L37,28 L37,26 L36,26 L36,24 L35,24 L35,23 L34,23 L34,21 L33,21 L33,20 L32,20 L32,19 L31,19 L31,18 L30,18 L30,17 L29,17 L29,16 L28,16 L28,15 L26,15 L26,14 L24,14 L24,13 L22,13 L22,12 L20,12 L20,11 L16,11 L16,10 Z " fill="#E0E0E0" transform="translate(43,200)"/>
<path d="M0,0 L4,0 L4,54 L-1,54 L-1,53 L-7,53 L-7,52 L-12,52 L-12,51 L-16,51 L-16,50 L-20,50 L-20,49 L-24,49 L-24,48 L-29,48 L-29,47 L-35,47 L-35,8 L-31,8 L-31,7 L-27,7 L-27,6 L-23,6 L-23,5 L-19,5 L-19,4 L-14,4 L-14,3 L-8,3 L-8,2 L-4,2 L-4,1 L0,1 Z " fill="#010101" transform="translate(819,131)"/>
<path d="M0,0 L2,0 L2,1 L5,1 L5,2 L10,2 L10,3 L16,3 L16,4 L20,4 L20,5 L25,5 L25,6 L29,6 L29,7 L34,7 L34,8 L38,8 L38,47 L32,47 L32,48 L28,48 L28,49 L24,49 L24,50 L20,50 L20,51 L16,51 L16,52 L11,52 L11,53 L5,53 L5,54 L0,54 L0,52 L-1,52 L-1,1 L0,1 Z " fill="#010101" transform="translate(683,131)"/>
<path d="M0,0 L15,0 L15,1 L19,1 L19,2 L23,2 L23,3 L25,3 L25,4 L27,4 L27,5 L29,5 L29,6 L30,6 L30,7 L32,7 L32,8 L33,8 L33,9 L34,9 L34,10 L36,10 L36,11 L35,11 L35,12 L32,12 L32,14 L31,14 L31,15 L29,15 L29,17 L27,17 L27,16 L26,16 L26,15 L24,15 L24,14 L23,14 L23,13 L21,13 L21,12 L18,12 L18,11 L14,11 L14,10 L1,10 L1,11 L-3,11 L-3,12 L-5,12 L-5,13 L-7,13 L-7,14 L-9,14 L-9,15 L-11,15 L-11,16 L-12,16 L-12,17 L-13,17 L-13,18 L-14,18 L-14,19 L-15,19 L-15,20 L-16,20 L-16,21 L-17,21 L-17,22 L-18,22 L-18,23 L-19,23 L-19,25 L-20,25 L-20,26 L-21,26 L-21,29 L-22,29 L-22,31 L-23,31 L-23,36 L-24,36 L-24,46 L-23,46 L-23,50 L-22,50 L-22,53 L-21,53 L-21,55 L-20,55 L-20,57 L-19,57 L-19,58 L-18,58 L-18,59 L-19,59 L-19,60 L-20,60 L-20,63 L-19,63 L-19,64 L-20,64 L-20,65 L-21,65 L-21,66 L-22,66 L-22,65 L-23,65 L-23,64 L-24,64 L-24,63 L-25,63 L-25,64 L-26,64 L-26,63 L-27,63 L-27,62 L-28,62 L-28,60 L-29,60 L-29,58 L-30,58 L-30,56 L-31,56 L-31,54 L-32,54 L-32,51 L-33,51 L-33,46 L-34,46 L-34,35 L-33,35 L-33,30 L-32,30 L-32,27 L-31,27 L-31,25 L-30,25 L-30,23 L-29,23 L-29,21 L-28,21 L-28,19 L-27,19 L-27,18 L-26,18 L-26,16 L-25,16 L-25,15 L-24,15 L-24,14 L-23,14 L-23,13 L-22,13 L-22,12 L-21,12 L-21,11 L-20,11 L-20,10 L-19,10 L-19,9 L-18,9 L-18,8 L-16,8 L-16,7 L-15,7 L-15,6 L-14,6 L-14,5 L-12,5 L-12,4 L-9,4 L-9,3 L-7,3 L-7,2 L-4,2 L-4,1 L0,1 Z " fill="#D2D2D1" transform="translate(137,114)"/>
<path d="M0,0 L15,0 L15,1 L19,1 L19,2 L23,2 L23,3 L25,3 L25,4 L27,4 L27,5 L29,5 L29,6 L31,6 L31,7 L33,7 L33,8 L34,8 L34,9 L35,9 L35,10 L36,10 L36,11 L37,11 L37,12 L38,12 L38,13 L39,13 L39,14 L40,14 L40,16 L39,16 L39,17 L38,17 L38,16 L36,16 L36,18 L35,18 L35,19 L36,19 L36,20 L32,20 L32,19 L31,19 L31,18 L30,18 L30,17 L29,17 L29,16 L28,16 L28,15 L26,15 L26,14 L24,14 L24,13 L22,13 L22,12 L20,12 L20,11 L16,11 L16,10 L-1,10 L-1,11 L-4,11 L-4,12 L-7,12 L-7,13 L-9,13 L-9,14 L-12,14 L-12,13 L-10,13 L-10,12 L-11,12 L-11,11 L-10,11 L-10,10 L-9,10 L-9,9 L-10,9 L-10,5 L-9,5 L-9,4 L-7,4 L-7,3 L-6,3 L-6,2 L-5,2 L-5,1 L0,1 Z " fill="#D7D7D7" transform="translate(43,200)"/>
<path d="M0,0 L1,0 L1,80 L-1,80 L-1,58 L-2,58 L-2,22 L-1,22 L-1,16 L-2,16 L-2,15 L-1,15 L-1,1 L0,1 Z " fill="#050505" transform="translate(237,144)"/>
<path d="M0,0 L1,0 L1,47 L-1,47 L-1,25 L-2,25 L-2,21 L-1,21 L-1,15 L0,15 Z " fill="#0B0B0B" transform="translate(237,177)"/>
<path d="M0,0 L2,0 L2,1 L1,1 L1,2 L2,2 L2,4 L1,4 L1,5 L2,5 L2,6 L1,6 L1,7 L0,7 L0,23 L-2,23 L-2,20 L-3,20 L-3,17 L-2,17 L-2,15 L-3,15 L-3,13 L-2,13 L-2,6 L-1,6 L-1,3 L0,3 Z " fill="#0A0A0A" transform="translate(238,81)"/>
<path d="M0,0 L9,0 L9,1 L13,1 L13,2 L14,2 L14,4 L12,4 L12,5 L10,5 L10,4 L9,4 L9,3 L8,3 L8,5 L7,5 L7,3 L5,3 L5,2 L3,2 L3,3 L2,3 L2,2 L0,2 Z " fill="#C8C8C7" transform="translate(143,114)"/>
<path d="M0,0 L2,0 L2,7 L1,7 L1,8 L2,8 L2,9 L1,9 L1,10 L0,10 L0,9 L-1,9 L-1,1 L0,1 Z " fill="#070707" transform="translate(236,225)"/>
<path d="M0,0 L2,0 L2,1 L0,1 Z " fill="#000000" transform="translate(685,128)"/>
<path d="M0,0 L1,0 L1,1 L0,1 Z " fill="#000000" transform="translate(624,139)"/>
</svg>
